<svg version="1.1" xmlns="http://www.w3.org/2000/svg" xmlns:xlink="http://www.w3.org/1999/xlink" width="700" height="700" viewBox="606,132,700,700"><g id="document" fill="#ffffff" fill-rule="nonzero" stroke="#000000" stroke-width="0" stroke-linecap="butt" stroke-linejoin="miter" stroke-miterlimit="10" stroke-dasharray="" stroke-dashoffset="0" font-family="none" font-weight="none" font-size="none" text-anchor="none" style="mix-blend-mode: normal"><rect x="606" y="94.28571" transform="scale(1,1.4)" width="700" height="500" id="Shape 1 1" vector-effect="non-scaling-stroke"/></g><g fill-opacity="0" fill="#000000" fill-rule="nonzero" stroke="#000000" stroke-width="1" stroke-linecap="none" stroke-linejoin="none" stroke-miterlimit="10" stroke-dasharray="" stroke-dashoffset="0" font-family="none" font-weight="none" font-size="none" text-anchor="none" style="mix-blend-mode: normal"><g id="stage"><g id="Layer2 1" stroke-linecap="round" stroke-linejoin="round" visibility="hidden"><path d="M707.03606,280.53842l148.33333,275" id="Path 1"/><path d="M855.79935,281.32636l-148.76328,274.76762" id="Path 1"/><path d="M855.79935,281.32636l-148.76328,274.76762" id="Path 1"/></g><g id="layer1 1"><path d="M707,556v-398h249v398z" id="Path 4" stroke-linecap="round" stroke-linejoin="round"/><path d="M855.9122,283.71872l0.01275,271.48016" id="Path 4" stroke-linecap="round" stroke-linejoin="round"/><path d="M851.01708,283.99472l-143.9741,266.85693" id="Path 4" stroke-linecap="round" stroke-linejoin="round"/><path d="M855.9362,290.22009l-143.74322,265.77991" id="Path 4" stroke-linecap="round" stroke-linejoin="round"/><path d="M855.89844,303.94451l-136.21969,252.03195" id="Path 4" stroke-linecap="round" stroke-linejoin="round"/><path d="M855.7579,318.45548l-128.39375,237.55248" id="Path 4" stroke-linecap="round" stroke-linejoin="round"/><path d="M855.93944,332.37054l-120.81325,223.52713" id="Path 4" stroke-linecap="round" stroke-linejoin="round"/><path d="M855.86056,346.89955l-112.8634,208.69938" id="Path 4" stroke-linecap="round" stroke-linejoin="round"/><path d="M855.86524,361.00968l-105.33567,194.89072" id="Path 4" stroke-linecap="round" stroke-linejoin="round"/><path d="M855.81001,375.3628l-97.5184,180.42731" id="Path 4" stroke-linecap="round" stroke-linejoin="round"/><path d="M855.59055,390.01979l-89.5369,165.66002" id="Path 4" stroke-linecap="round" stroke-linejoin="round"/><path d="M855.73582,404.00195l-82.10598,151.91144" id="Path 4" stroke-linecap="round" stroke-linejoin="round"/><path d="M855.74673,418.23269l-74.25137,137.37895" id="Path 4" stroke-linecap="round" stroke-linejoin="round"/><path d="M855.78321,432.41615l-66.56413,123.1561" id="Path 4" stroke-linecap="round" stroke-linejoin="round"/><path d="M855.60001,447.00604l-58.80474,108.79978" id="Path 4" stroke-linecap="round" stroke-linejoin="round"/><path d="M855.86047,460.77507l-51.41238,95.12253" id="Path 4" stroke-linecap="round" stroke-linejoin="round"/><path d="M855.96309,474.83615l-43.82959,81.09295" id="Path 4" stroke-linecap="round" stroke-linejoin="round"/><path d="M855.82254,489.34711l-35.86185,66.35115" id="Path 4" stroke-linecap="round" stroke-linejoin="round"/><path d="M855.96782,503.32927l-28.3543,52.46077" id="Path 4" stroke-linecap="round" stroke-linejoin="round"/><path d="M855.83366,517.82841l-20.38721,37.72016" id="Path 4" stroke-linecap="round" stroke-linejoin="round"/><path d="M855.69312,532.33938l-12.74712,23.58455" id="Path 4" stroke-linecap="round" stroke-linejoin="round"/><path d="M855.832,546.33336l-5.19485,9.61145" id="Path 4" stroke-linecap="round" stroke-linejoin="round"/><path d="M843.43201,284.40399l-136.51517,252.42872" id="Path 4" stroke-linecap="round" stroke-linejoin="round"/><path d="M835.14137,284.82252l-128.09076,237.51197" id="Path 4" stroke-linecap="round" stroke-linejoin="round"/><path d="M827.33011,284.95103l-120.3533,222.40844" id="Path 4" stroke-linecap="round" stroke-linejoin="round"/><path d="M820.0564,284.68954l-112.92081,208.98401" id="Path 4" stroke-linecap="round" stroke-linejoin="round"/><path d="M812.5147,284.35461l-105.76624,195.7844" id="Path 4" stroke-linecap="round" stroke-linejoin="round"/><path d="M805.22477,283.98885l-97.97035,180.96915" id="Path 4" stroke-linecap="round" stroke-linejoin="round"/><path d="M797.22656,283.5459l-89.91648,167.04431" id="Path 4" stroke-linecap="round" stroke-linejoin="round"/><path d="M789.84977,283.0997l-82.68417,153.50257" id="Path 4" stroke-linecap="round" stroke-linejoin="round"/><path d="M782.59201,282.62423l-75.42398,139.73781" id="Path 4" stroke-linecap="round" stroke-linejoin="round"/><path d="M775.50764,282.12274l-68.4609,126.22285" id="Path 4" stroke-linecap="round" stroke-linejoin="round"/><path d="M767.97202,281.54449l-60.91829,112.53189" id="Path 4" stroke-linecap="round" stroke-linejoin="round"/><path d="M760.69548,280.93628l-53.466,98.56425" id="Path 4" stroke-linecap="round" stroke-linejoin="round"/><path d="M753.25687,280.25509l-46.19695,85.26743" id="Path 4" stroke-linecap="round" stroke-linejoin="round"/><path d="M745.9213,279.51201l-38.80385,71.83665" id="Path 4" stroke-linecap="round" stroke-linejoin="round"/><path d="M738.70036,278.69315l-31.69104,58.36937" id="Path 4" stroke-linecap="round" stroke-linejoin="round"/><path d="M731.26335,277.72869l-24.00942,44.25117" id="Path 4" stroke-linecap="round" stroke-linejoin="round"/><path d="M723.90462,276.59844l-16.83971,31.15945" id="Path 4" stroke-linecap="round" stroke-linejoin="round"/><path d="M716.99322,275.27206l-10.09918,19.42799" id="Path 4" stroke-linecap="round" stroke-linejoin="round"/><path d="M710.74702,273.60642l-3.75717,6.83781" id="Path 4" stroke-linecap="round" stroke-linejoin="round"/><path d="M861.92495,283.82353v271.37535" id="Path 4" stroke-linecap="round" stroke-linejoin="round"/><path d="M867.81515,283.00882l0.1098,272.19006" id="Path 4" stroke-linecap="round" stroke-linejoin="round"/><path d="M873.81375,282.62921l0.1112,272.56967" id="Path 4" stroke-linecap="round" stroke-linejoin="round"/><path d="M880.0296,282.21906l-0.10465,272.97982" id="Path 4" stroke-linecap="round" stroke-linejoin="round"/><path d="M885.92495,282.05882v273.14006" id="Path 4" stroke-linecap="round" stroke-linejoin="round"/><path d="M891.92495,281.70588v273.493" id="Path 4" stroke-linecap="round" stroke-linejoin="round"/><path d="M897.8073,281.58824l0.11765,273.61064" id="Path 4" stroke-linecap="round" stroke-linejoin="round"/><path d="M903.92495,281v274.19888" id="Path 4" stroke-linecap="round" stroke-linejoin="round"/><path d="M909.92495,280.52941v274.66947" id="Path 4" stroke-linecap="round" stroke-linejoin="round"/><path d="M915.92495,279.82353v275.37535" id="Path 4" stroke-linecap="round" stroke-linejoin="round"/><path d="M921.92495,279.11765v276.08123" id="Path 4" stroke-linecap="round" stroke-linejoin="round"/><path d="M927.92495,278.64706v276.55182" id="Path 4" stroke-linecap="round" stroke-linejoin="round"/><path d="M933.92495,278.05882v277.14006" id="Path 4" stroke-linecap="round" stroke-linejoin="round"/><path d="M939.92495,277.23529v277.96359" id="Path 4" stroke-linecap="round" stroke-linejoin="round"/><path d="M945.92495,276.17647v279.02241" id="Path 4" stroke-linecap="round" stroke-linejoin="round"/><path d="M950.92495,275.11765v280.08123" id="Path 4" stroke-linecap="round" stroke-linejoin="round"/><path d="" id="Path 1 1" stroke-linecap="butt" stroke-linejoin="miter"/><path d="M955.99943,158.06784c0,0.09068 -0.01926,0.20734 -0.05843,0.29635c-2.94259,6.68792 -115.04887,12.17059 -124.87969,12.57924c-9.94787,0 -109.60342,-4.4114 -123.61192,-12.94343" id="Path 2 1" stroke-linecap="butt" stroke-linejoin="miter"/><path d="M955.77502,164.14476c0,0.09068 -0.01926,0.20734 -0.05843,0.29635c-2.94259,6.68792 -115.04887,12.17059 -124.87969,12.57924c-9.94787,0 -109.60342,-4.4114 -123.61192,-12.94343" id="Path 4" stroke-linecap="butt" stroke-linejoin="miter"/><path d="M955.77502,170.14476c0,0.09068 -0.01926,0.20734 -0.05843,0.29635c-2.94259,6.68792 -115.04887,12.17059 -124.87969,12.57924c-9.94787,0 -109.60342,-4.4114 -123.61192,-12.94343" id="Path 4" stroke-linecap="butt" stroke-linejoin="miter"/><path d="M955.77502,176.14476c0,0.09068 -0.01926,0.20734 -0.05843,0.29635c-2.94259,6.68792 -115.04887,12.17059 -124.87969,12.57924c-9.94787,0 -109.60342,-4.4114 -123.61192,-12.94343" id="Path 4" stroke-linecap="butt" stroke-linejoin="miter"/><path d="M955.77502,182.14476c0,0.09068 -0.01926,0.20734 -0.05843,0.29635c-2.94259,6.68792 -115.04887,12.17059 -124.87969,12.57924c-9.94787,0 -109.60342,-4.4114 -123.61192,-12.94343" id="Path 4" stroke-linecap="butt" stroke-linejoin="miter"/><path d="M955.77502,188.14476c0,0.09068 -0.01926,0.20734 -0.05843,0.29635c-2.94259,6.68792 -115.04887,12.17059 -124.87969,12.57924c-9.94787,0 -109.60342,-4.4114 -123.61192,-12.94343" id="Path 4" stroke-linecap="butt" stroke-linejoin="miter"/><path d="M955.77502,194.14476c0,0.09068 -0.01926,0.20734 -0.05843,0.29635c-2.94259,6.68792 -115.04887,12.17059 -124.87969,12.57924c-9.94787,0 -109.60342,-4.4114 -123.61192,-12.94343" id="Path 4" stroke-linecap="butt" stroke-linejoin="miter"/><path d="M955.77502,200.14476c0,0.09068 -0.01926,0.20734 -0.05843,0.29635c-2.94259,6.68792 -115.04887,12.17059 -124.87969,12.57924c-9.94787,0 -109.60342,-4.4114 -123.61192,-12.94343" id="Path 4" stroke-linecap="butt" stroke-linejoin="miter"/><path d="M955.77502,206.14476c0,0.09068 -0.01926,0.20734 -0.05843,0.29635c-2.94259,6.68792 -115.04887,12.17059 -124.87969,12.57924c-9.94787,0 -109.60342,-4.4114 -123.61192,-12.94343" id="Path 4" stroke-linecap="butt" stroke-linejoin="miter"/><path d="M955.77502,212.14476c0,0.09068 -0.01926,0.20734 -0.05843,0.29635c-2.94259,6.68792 -115.04887,12.17059 -124.87969,12.57924c-9.94787,0 -109.60342,-4.4114 -123.61192,-12.94343" id="Path 4" stroke-linecap="butt" stroke-linejoin="miter"/><path d="M955.77502,218.14476c0,0.09068 -0.01926,0.20734 -0.05843,0.29635c-2.94259,6.68792 -115.04887,12.17059 -124.87969,12.57924c-9.94787,0 -109.60342,-4.4114 -123.61192,-12.94343" id="Path 4" stroke-linecap="butt" stroke-linejoin="miter"/><path d="M955.77502,224.14476c0,0.09068 -0.01926,0.20734 -0.05843,0.29635c-2.94259,6.68792 -115.04887,12.17059 -124.87969,12.57924c-9.94787,0 -109.60342,-4.4114 -123.61192,-12.94343" id="Path 4" stroke-linecap="butt" stroke-linejoin="miter"/><path d="M955.77502,230.14476c0,0.09068 -0.01926,0.20734 -0.05843,0.29635c-2.94259,6.68792 -115.04887,12.17059 -124.87969,12.57924c-9.94787,0 -109.60342,-4.4114 -123.61192,-12.94343" id="Path 4" stroke-linecap="butt" stroke-linejoin="miter"/><path d="M955.77502,236.14476c0,0.09068 -0.01926,0.20734 -0.05843,0.29635c-2.94259,6.68792 -115.04887,12.17059 -124.87969,12.57924c-9.94787,0 -109.60342,-4.4114 -123.61192,-12.94343" id="Path 4" stroke-linecap="butt" stroke-linejoin="miter"/><path d="M955.77502,242.14476c0,0.09068 -0.01926,0.20734 -0.05843,0.29635c-2.94259,6.68792 -115.04887,12.17059 -124.87969,12.57924c-9.94787,0 -109.60342,-4.4114 -123.61192,-12.94343" id="Path 4" stroke-linecap="butt" stroke-linejoin="miter"/><path d="M955.77502,248.14476c0,0.09068 -0.01926,0.20734 -0.05843,0.29635c-2.94259,6.68792 -115.04887,12.17059 -124.87969,12.57924c-9.94787,0 -109.60342,-4.4114 -123.61192,-12.94343" id="Path 4" stroke-linecap="butt" stroke-linejoin="miter"/><path d="M955.77502,254.14476c0,0.09068 -0.01926,0.20734 -0.05843,0.29635c-2.94259,6.68792 -115.04887,12.17059 -124.87969,12.57924c-9.94787,0 -109.60342,-4.4114 -123.61192,-12.94343" id="Path 4" stroke-linecap="butt" stroke-linejoin="miter"/><path d="M955.77502,260.14476c0,0.09068 -0.01926,0.20734 -0.05843,0.29635c-2.94259,6.68792 -115.04887,12.17059 -124.87969,12.57924c-9.94787,0 -109.60342,-4.4114 -123.61192,-12.94343" id="Path 4" stroke-linecap="butt" stroke-linejoin="miter"/><path d="M955.77502,266.14476c0,0.09068 -0.01926,0.20734 -0.05843,0.29635c-2.94259,6.68792 -115.04887,12.17059 -124.87969,12.57924c-9.94787,0 -109.60342,-4.4114 -123.61192,-12.94343" id="Path 4" stroke-linecap="butt" stroke-linejoin="miter"/><path d="M955.77502,272.14476c0,0.09068 -0.01926,0.20734 -0.05843,0.29635c-2.94259,6.68792 -115.04887,12.17059 -124.87969,12.57924c-9.94787,0 -109.60342,-4.4114 -123.61192,-12.94343" id="Path 4" stroke-linecap="butt" stroke-linejoin="miter"/><path d="M929.1647,157.99453c-34.62214,3.90983 -91.24582,6.66384 -98.10339,6.9489c-7.29578,0 -62.84336,-2.37279 -97.46867,-7.00368" id="Path 3 1" stroke-linecap="butt" stroke-linejoin="miter"/></g></g></g></svg>